<svg width="48" height="48" viewBox="0 0 48 48" fill="none" xmlns="http://www.w3.org/2000/svg">
<circle cx="24" cy="14" r="4.5" stroke="#FF498B" stroke-width="3"/>
<path d="M36.5 13.3953C36.5 16.8624 34.9314 25.3375 32.3327 32.9896C31.038 36.802 29.5232 40.3002 27.8868 42.8153C27.0684 44.0731 26.2585 45.0239 25.4828 45.6472C24.7114 46.2669 24.0558 46.5 23.5 46.5C22.9442 46.5 22.2886 46.2669 21.5172 45.6472C20.7415 45.0239 19.9316 44.0731 19.1132 42.8153C17.4768 40.3002 15.962 36.802 14.6673 32.9896C12.0686 25.3375 10.5 16.8624 10.5 13.3953C10.5 6.93543 16.2062 1.5 23.5 1.5C30.7938 1.5 36.5 6.93543 36.5 13.3953Z" stroke="#152C5B" stroke-width="3"/>
</svg>
