<svg width="48" height="48" viewBox="0 0 48 48" fill="none" xmlns="http://www.w3.org/2000/svg">
<path d="M6.56194 20.9809C6.96408 20.0801 7.85831 19.5 8.84478 19.5H41.1552C42.1417 19.5 43.0359 20.0801 43.4381 20.9809L46.1166 26.9809C46.8549 28.6345 45.6447 30.5 43.8338 30.5H6.16621C4.35528 30.5 3.14514 28.6345 3.88337 26.9809L6.56194 20.9809Z" stroke="#152C5B" stroke-width="3"/>
<mask id="path-2-inside-1" fill="white">
<path d="M7.22393 29.0118C6.67168 29.0053 6.21872 29.4477 6.21221 29.9999L6.04716 43.999C6.02111 46.2079 7.79074 48.0198 9.99972 48.0458C12.2087 48.0719 14.0206 46.3023 14.0466 44.0933L14.2117 30.0942C14.2182 29.542 13.7758 29.089 13.2235 29.0825L7.22393 29.0118Z"/>
</mask>
<path d="M7.22393 29.0118C6.67168 29.0053 6.21872 29.4477 6.21221 29.9999L6.04716 43.999C6.02111 46.2079 7.79074 48.0198 9.99972 48.0458C12.2087 48.0719 14.0206 46.3023 14.0466 44.0933L14.2117 30.0942C14.2182 29.542 13.7758 29.089 13.2235 29.0825L7.22393 29.0118Z" stroke="#152C5B" stroke-width="6" mask="url(#path-2-inside-1)"/>
<mask id="path-3-inside-2" fill="white">
<path d="M42.9995 29.0118C43.5518 29.0053 44.0047 29.4477 44.0112 29.9999L44.1763 43.999C44.2023 46.2079 42.4327 48.0198 40.2237 48.0458C38.0147 48.0719 36.2029 46.3023 36.1768 44.0933L36.0118 30.0942C36.0053 29.542 36.4477 29.089 36.9999 29.0825L42.9995 29.0118Z"/>
</mask>
<path d="M42.9995 29.0118C43.5518 29.0053 44.0047 29.4477 44.0112 29.9999L44.1763 43.999C44.2023 46.2079 42.4327 48.0198 40.2237 48.0458C38.0147 48.0719 36.2029 46.3023 36.1768 44.0933L36.0118 30.0942C36.0053 29.542 36.4477 29.089 36.9999 29.0825L42.9995 29.0118Z" stroke="#152C5B" stroke-width="6" mask="url(#path-3-inside-2)"/>
<line x1="16.5" y1="13.5" x2="16.5" y2="19.5" stroke="#152C5B" stroke-width="3" stroke-linecap="round"/>
<line x1="34.5" y1="13.5" x2="34.5" y2="19.5" stroke="#152C5B" stroke-width="3" stroke-linecap="round"/>
<mask id="path-6-inside-3" fill="white">
<path d="M18.9995 4.01179C19.5518 4.00528 20.0047 4.44768 20.0112 4.99993L20.0702 9.99958C20.0962 12.2086 18.3266 14.0204 16.1176 14.0465C13.9086 14.0725 12.0968 12.3029 12.0707 10.0939L12.0118 5.09425C12.0053 4.542 12.4477 4.08904 12.9999 4.08253L18.9995 4.01179Z"/>
</mask>
<path d="M18.9995 4.01179C19.5518 4.00528 20.0047 4.44768 20.0112 4.99993L20.0702 9.99958C20.0962 12.2086 18.3266 14.0204 16.1176 14.0465C13.9086 14.0725 12.0968 12.3029 12.0707 10.0939L12.0118 5.09425C12.0053 4.542 12.4477 4.08904 12.9999 4.08253L18.9995 4.01179Z" stroke="#FF498B" stroke-width="6" mask="url(#path-6-inside-3)"/>
<mask id="path-7-inside-4" fill="white">
<path d="M36.9995 4.01179C37.5518 4.00528 38.0047 4.44768 38.0112 4.99993L38.0702 9.99958C38.0962 12.2086 36.3266 14.0204 34.1176 14.0465C31.9086 14.0725 30.0968 12.3029 30.0707 10.0939L30.0118 5.09425C30.0053 4.542 30.4477 4.08904 30.9999 4.08253L36.9995 4.01179Z"/>
</mask>
<path d="M36.9995 4.01179C37.5518 4.00528 38.0047 4.44768 38.0112 4.99993L38.0702 9.99958C38.0962 12.2086 36.3266 14.0204 34.1176 14.0465C31.9086 14.0725 30.0968 12.3029 30.0707 10.0939L30.0118 5.09425C30.0053 4.542 30.4477 4.08904 30.9999 4.08253L36.9995 4.01179Z" stroke="#FF498B" stroke-width="6" mask="url(#path-7-inside-4)"/>
</svg>
