<svg width="48" height="48" viewBox="0 0 48 48" fill="none" xmlns="http://www.w3.org/2000/svg">
<path d="M7.5 10C7.5 5.30558 11.3056 1.5 16 1.5H31C35.6944 1.5 39.5 5.30558 39.5 10V24.5H7.5V10Z" stroke="#152C5B" stroke-width="3"/>
<line x1="5.5" y1="35.5" x2="5.5" y2="44.5" stroke="#152C5B" stroke-width="3" stroke-linecap="round"/>
<line x1="42.5" y1="35.5" x2="42.5" y2="44.5" stroke="#152C5B" stroke-width="3" stroke-linecap="round"/>
<line x1="5.5" y1="40.5" x2="42.5" y2="40.5" stroke="#152C5B" stroke-width="3" stroke-linecap="round"/>
<rect x="12.5" y="15.5" width="9" height="9" rx="2.5" stroke="#FF498B" stroke-width="3"/>
<rect x="25.5" y="15.5" width="9" height="9" rx="2.5" stroke="#FF498B" stroke-width="3"/>
<mask id="path-7-inside-1" fill="white">
<path d="M0 28C0 25.7909 1.79086 24 4 24H44C46.2091 24 48 25.7909 48 28V35C48 36.1046 47.1046 37 46 37H2C0.895431 37 0 36.1046 0 35V28Z"/>
</mask>
<path d="M0 28C0 25.7909 1.79086 24 4 24H44C46.2091 24 48 25.7909 48 28V35C48 36.1046 47.1046 37 46 37H2C0.895431 37 0 36.1046 0 35V28Z" stroke="#152C5B" stroke-width="6" mask="url(#path-7-inside-1)"/>
</svg>
