<svg width="48" height="48" viewBox="0 0 48 48" fill="none" xmlns="http://www.w3.org/2000/svg">
<path d="M40.5 29L39.6724 30.1954C37.4366 33.4249 37.2985 37.6642 39.3194 41.0324L40.5 43" stroke="#152C5B" stroke-width="3" stroke-linecap="round"/>
<path d="M7 29L7.82755 30.1954C10.0634 33.4249 10.2015 37.6642 8.18056 41.0324L7 43" stroke="#152C5B" stroke-width="3" stroke-linecap="round"/>
<path d="M34.5 29L33.6724 30.1954C31.4366 33.4249 31.2985 37.6642 33.3194 41.0324L34.5 43" stroke="#152C5B" stroke-width="3" stroke-linecap="round"/>
<path d="M13 29L13.8276 30.1954C16.0634 33.4249 16.2015 37.6642 14.1806 41.0324L13 43" stroke="#152C5B" stroke-width="3" stroke-linecap="round"/>
<line x1="3.5" y1="19.5" x2="45.5" y2="19.5" stroke="#152C5B" stroke-width="3" stroke-linecap="round"/>
<path d="M1.5 11C1.5 9.61929 2.61929 8.5 4 8.5H44C45.3807 8.5 46.5 9.61929 46.5 11V22C46.5 23.3807 45.3807 24.5 44 24.5H4C2.61929 24.5 1.5 23.3807 1.5 22V11Z" stroke="#152C5B" stroke-width="3"/>
<line x1="21.5" y1="14.5" x2="27.5" y2="14.5" stroke="#FF498B" stroke-width="3" stroke-linecap="round"/>
</svg>
